# xmcd
#
# Track frame offsets:
#	150
#	16000
#	28427
#	40787
#	51152
#	64585
#	78007
#	90605
#	108792
#	121292
#	137122
#	157620
#	177235
#	193935
#	205055
#	219077
#	235247
#	253097
#	267980
#	286590
#	302477
#
# Disc length: 4215 seconds
#
# Revision: 1
# Processed by: cddbd v1.5.1PL0 Copyright (c) Steve Scherf et al.
# Submitted via: MusicManager 7.2.0.0 
#
DISCID=0f107515
DTITLE=Waylon Jennings - The Complete MCA Recordings Disc 1
DYEAR=2004
DGENRE=Country
TTITLE0=Will The Wolf Survive ?
TTITLE1=They Ain't Got 'Em All
TTITLE2=Working Without A Net
TTITLE3=Where Does Love Go
TTITLE4=That Dog Won't Hunt
TTITLE5=What You'll Do When I'm Gone
TTITLE6=Suddenly Single
TTITLE7=The Shadow Of Your Distant Friend
TTITLE8=I've Got Me A Woman
TTITLE9=The Devil's Right Hand
TTITLE10=Baker Street
TTITLE11=I Can't Help The Way I Don't Feel About You
TTITLE12=Rose In Paradise
TTITLE13=Crying Don't Even Come Close
TTITLE14=Chevy Van
TTITLE15=Fallin' Out
TTITLE16=Deep In The West
TTITLE17=Between Fathers and Sons
TTITLE18=The Crown Prince
TTITLE19=Defying Gravity (Executioner's Song)
TTITLE20=Even Cowgirls Get The Blues (with Johnny Cash)
EXTD=
EXTT0=
EXTT1=
EXTT2=
EXTT3=
EXTT4=
EXTT5=
EXTT6=
EXTT7=
EXTT8=
EXTT9=
EXTT10=
EXTT11=
EXTT12=
EXTT13=
EXTT14=
EXTT15=
EXTT16=
EXTT17=
EXTT18=
EXTT19=
EXTT20=
PLAYORDER=
